# xmcd
#
# Track frame offsets:
#	150
#	21605
#	45475
#	66878
#	86073
#	111553
#	130348
#	146178
#	163815
#	184670
#	204748
#
# Disc length: 2973 seconds
#
# Revision: 3
# Processed by: cddbd v1.5.2PL0 Copyright (c) Steve Scherf et al.
# Submitted via: EasyCDDAExtractor 15.3.0.1
#
DISCID=ad0b9b0b
DTITLE=Maria Conchita Alonso - Imaginame
DYEAR=1992
DGENRE=Latin
TTITLE0=Promesas
TTITLE1=No Se Por Que
TTITLE2=No Hay Tiempo Que Perder
TTITLE3=Ay
TTITLE4=Me Alejan De Ti
TTITLE5=Imaginame
TTITLE6=Cuando El Corazon Se Cansa
TTITLE7=Quisiera Espiarte
TTITLE8=Asi
TTITLE9=Picante
TTITLE10=Es Mejor Que Te Vayas
EXTD=
EXTT0=
EXTT1=
EXTT2=
EXTT3=
EXTT4=
EXTT5=
EXTT6=
EXTT7=
EXTT8=
EXTT9=
EXTT10=
PLAYORDER=
